# xmcd
#
# Track frame offsets:
# 150
# 14906
# 24995
# 38911
# 53311
# 68984
# 90687
# 108511
# 121713
# 136790
# 153722
# 174273
# 187568
# 202564
# 220837
# 237633
# 249307
# 263262
# 281756
# 302858
#
# Disc length: 4287 seconds
#
#
# Revision: 1
# Processed by: cddbd v1.4PL0 Copyright (c) Steve Scherf et al.
# Submitted via: FreeRIP 2.00 
#
DISCID=0210bd14
DTITLE=hombres G - exitos
DYEAR=1900
DGENRE=
TTITLE0=Devuelveme a mi chica
TTITLE1=Martha tiene un marcapasos
TTITLE2=El ataque de las chicas
TTITLE3=Sueltate el pelo
TTITLE4=Visite nuestro bar
TTITLE5=Si no te tengo a ti
TTITLE6=Chico tienes que cuidarte
TTITLE7=Laurence de arabia
TTITLE8=Solo unpar de palabras
TTITLE9=Te quiero
TTITLE10=Venecia
TTITLE11=Indiana
TTITLE12=Vuelve a mi
TTITLE13=Hace un año
TTITLE14=No te puedo besar
TTITLE15=Solo me faltas tu
TTITLE16=Una mujer bandera
TTITLE17=Te necesito
TTITLE18=Nassau
TTITLE19=Deja que la nenas se hacerque a mi
EXTD=
EXTT0=
EXTT1=
EXTT2=
EXTT3=
EXTT4=
EXTT5=
EXTT6=
EXTT7=
EXTT8=
EXTT9=
EXTT10=
EXTT11=
EXTT12=
EXTT13=
EXTT14=
EXTT15=
EXTT16=
EXTT17=
EXTT18=
EXTT19=
PLAYORDER=
